<mxfile host="Electron" modified="2024-03-11T14:47:21.624Z" agent="Mozilla/5.0 (Macintosh; Intel Mac OS X 10_15_7) AppleWebKit/537.36 (KHTML, like Gecko) draw.io/23.0.2 Chrome/120.0.6099.109 Electron/28.1.0 Safari/537.36" etag="Su70oTmlAVWy3Sb9ozXk" version="23.0.2" type="device">
  <diagram name="페이지-1" id="lnjqYc9-TD0KLXyh1D5n">
    <mxGraphModel dx="1238" dy="976" grid="1" gridSize="10" guides="1" tooltips="1" connect="1" arrows="1" fold="1" page="1" pageScale="1" pageWidth="1169" pageHeight="827" math="0" shadow="0">
      <root>
        <mxCell id="0" />
        <mxCell id="1" parent="0" />
        <mxCell id="sAggbgLhTvSgYfQhOpYx-1" value="&lt;p style=&quot;margin:0px;margin-top:4px;text-align:center;&quot;&gt;&lt;b&gt;&lt;font style=&quot;font-size: 20px;&quot;&gt;강의 사이트&lt;/font&gt;&lt;/b&gt;&lt;/p&gt;&lt;hr size=&quot;1&quot;&gt;&lt;div style=&quot;height:2px;&quot;&gt;&lt;/div&gt;" style="verticalAlign=top;align=left;overflow=fill;fontSize=12;fontFamily=Helvetica;html=1;whiteSpace=wrap;" vertex="1" parent="1">
          <mxGeometry x="290" y="60" width="800" height="690" as="geometry" />
        </mxCell>
        <mxCell id="sAggbgLhTvSgYfQhOpYx-2" value="ADMIN" style="shape=umlActor;verticalLabelPosition=bottom;verticalAlign=top;html=1;" vertex="1" parent="1">
          <mxGeometry x="60" y="160" width="50" height="90" as="geometry" />
        </mxCell>
        <mxCell id="sAggbgLhTvSgYfQhOpYx-3" value="USER" style="shape=umlActor;verticalLabelPosition=bottom;verticalAlign=top;html=1;" vertex="1" parent="1">
          <mxGeometry x="70" y="550" width="50" height="95" as="geometry" />
        </mxCell>
        <mxCell id="sAggbgLhTvSgYfQhOpYx-6" value="&lt;span style=&quot;font-size: 15px;&quot;&gt;ADMIN 권한 확인&lt;/span&gt;" style="ellipse;whiteSpace=wrap;html=1;" vertex="1" parent="1">
          <mxGeometry x="720" y="130" width="140" height="70" as="geometry" />
        </mxCell>
        <mxCell id="sAggbgLhTvSgYfQhOpYx-7" value="&lt;span style=&quot;font-size: 15px;&quot;&gt;강사 등록&lt;br&gt;&lt;/span&gt;" style="ellipse;whiteSpace=wrap;html=1;" vertex="1" parent="1">
          <mxGeometry x="410" y="110" width="140" height="70" as="geometry" />
        </mxCell>
        <mxCell id="sAggbgLhTvSgYfQhOpYx-8" value="&lt;span style=&quot;font-size: 15px;&quot;&gt;강의 등록&lt;/span&gt;" style="ellipse;whiteSpace=wrap;html=1;" vertex="1" parent="1">
          <mxGeometry x="410" y="190" width="140" height="70" as="geometry" />
        </mxCell>
        <mxCell id="sAggbgLhTvSgYfQhOpYx-9" value="&lt;span style=&quot;font-size: 15px;&quot;&gt;회원 가입&lt;/span&gt;" style="ellipse;whiteSpace=wrap;html=1;" vertex="1" parent="1">
          <mxGeometry x="430" y="400" width="140" height="70" as="geometry" />
        </mxCell>
        <mxCell id="sAggbgLhTvSgYfQhOpYx-10" value="&lt;span style=&quot;font-size: 15px;&quot;&gt;좋아요&lt;/span&gt;" style="ellipse;whiteSpace=wrap;html=1;" vertex="1" parent="1">
          <mxGeometry x="540" y="620" width="140" height="70" as="geometry" />
        </mxCell>
        <mxCell id="sAggbgLhTvSgYfQhOpYx-11" value="&lt;span style=&quot;font-size: 15px;&quot;&gt;댓글 작성&lt;/span&gt;" style="ellipse;whiteSpace=wrap;html=1;" vertex="1" parent="1">
          <mxGeometry x="690" y="380" width="140" height="70" as="geometry" />
        </mxCell>
        <mxCell id="sAggbgLhTvSgYfQhOpYx-12" value="&lt;span style=&quot;font-size: 15px;&quot;&gt;로그인&lt;/span&gt;" style="ellipse;whiteSpace=wrap;html=1;" vertex="1" parent="1">
          <mxGeometry x="430" y="290" width="140" height="70" as="geometry" />
        </mxCell>
        <mxCell id="sAggbgLhTvSgYfQhOpYx-13" value="" style="endArrow=none;html=1;rounded=0;entryX=1;entryY=0.3333333333333333;entryDx=0;entryDy=0;entryPerimeter=0;exitX=0;exitY=0.5;exitDx=0;exitDy=0;" edge="1" parent="1" source="sAggbgLhTvSgYfQhOpYx-7" target="sAggbgLhTvSgYfQhOpYx-2">
          <mxGeometry width="50" height="50" relative="1" as="geometry">
            <mxPoint x="560" y="430" as="sourcePoint" />
            <mxPoint x="610" y="380" as="targetPoint" />
          </mxGeometry>
        </mxCell>
        <mxCell id="sAggbgLhTvSgYfQhOpYx-14" value="" style="endArrow=none;html=1;rounded=0;entryX=1;entryY=0.3333333333333333;entryDx=0;entryDy=0;entryPerimeter=0;exitX=0;exitY=0.5;exitDx=0;exitDy=0;" edge="1" parent="1" source="sAggbgLhTvSgYfQhOpYx-8" target="sAggbgLhTvSgYfQhOpYx-2">
          <mxGeometry width="50" height="50" relative="1" as="geometry">
            <mxPoint x="400" y="175" as="sourcePoint" />
            <mxPoint x="120" y="200" as="targetPoint" />
          </mxGeometry>
        </mxCell>
        <mxCell id="sAggbgLhTvSgYfQhOpYx-15" value="&amp;lt;&amp;lt;include&amp;gt;&amp;gt;" style="html=1;verticalAlign=bottom;labelBackgroundColor=none;endArrow=open;endFill=0;dashed=1;rounded=0;exitX=1;exitY=0.5;exitDx=0;exitDy=0;entryX=0;entryY=0.5;entryDx=0;entryDy=0;" edge="1" parent="1" source="sAggbgLhTvSgYfQhOpYx-7" target="sAggbgLhTvSgYfQhOpYx-6">
          <mxGeometry width="160" relative="1" as="geometry">
            <mxPoint x="510" y="410" as="sourcePoint" />
            <mxPoint x="670" y="410" as="targetPoint" />
          </mxGeometry>
        </mxCell>
        <mxCell id="sAggbgLhTvSgYfQhOpYx-16" value="&amp;lt;&amp;lt;include&amp;gt;&amp;gt;" style="html=1;verticalAlign=bottom;labelBackgroundColor=none;endArrow=open;endFill=0;dashed=1;rounded=0;exitX=1;exitY=0.5;exitDx=0;exitDy=0;entryX=0;entryY=0.5;entryDx=0;entryDy=0;" edge="1" parent="1" source="sAggbgLhTvSgYfQhOpYx-8" target="sAggbgLhTvSgYfQhOpYx-6">
          <mxGeometry width="160" relative="1" as="geometry">
            <mxPoint x="540" y="175" as="sourcePoint" />
            <mxPoint x="710" y="205" as="targetPoint" />
          </mxGeometry>
        </mxCell>
        <mxCell id="sAggbgLhTvSgYfQhOpYx-17" value="" style="endArrow=none;html=1;rounded=0;entryX=1;entryY=0.3333333333333333;entryDx=0;entryDy=0;entryPerimeter=0;exitX=0;exitY=0.5;exitDx=0;exitDy=0;" edge="1" parent="1" source="sAggbgLhTvSgYfQhOpYx-12" target="sAggbgLhTvSgYfQhOpYx-3">
          <mxGeometry width="50" height="50" relative="1" as="geometry">
            <mxPoint x="420" y="235" as="sourcePoint" />
            <mxPoint x="120" y="200" as="targetPoint" />
          </mxGeometry>
        </mxCell>
        <mxCell id="sAggbgLhTvSgYfQhOpYx-18" value="" style="endArrow=none;html=1;rounded=0;entryX=1;entryY=0.3333333333333333;entryDx=0;entryDy=0;entryPerimeter=0;exitX=0;exitY=0.5;exitDx=0;exitDy=0;" edge="1" parent="1" source="sAggbgLhTvSgYfQhOpYx-9" target="sAggbgLhTvSgYfQhOpYx-3">
          <mxGeometry width="50" height="50" relative="1" as="geometry">
            <mxPoint x="440" y="375" as="sourcePoint" />
            <mxPoint x="130" y="592" as="targetPoint" />
          </mxGeometry>
        </mxCell>
        <mxCell id="sAggbgLhTvSgYfQhOpYx-19" value="" style="endArrow=none;html=1;rounded=0;entryX=0;entryY=0.5;entryDx=0;entryDy=0;exitX=1;exitY=0.3333333333333333;exitDx=0;exitDy=0;exitPerimeter=0;" edge="1" parent="1" source="sAggbgLhTvSgYfQhOpYx-2" target="sAggbgLhTvSgYfQhOpYx-12">
          <mxGeometry width="50" height="50" relative="1" as="geometry">
            <mxPoint x="430" y="385" as="sourcePoint" />
            <mxPoint x="130" y="592" as="targetPoint" />
          </mxGeometry>
        </mxCell>
        <mxCell id="sAggbgLhTvSgYfQhOpYx-20" value="" style="endArrow=none;html=1;rounded=0;entryX=0;entryY=0.5;entryDx=0;entryDy=0;exitX=1;exitY=0.3333333333333333;exitDx=0;exitDy=0;exitPerimeter=0;" edge="1" parent="1" source="sAggbgLhTvSgYfQhOpYx-2" target="sAggbgLhTvSgYfQhOpYx-9">
          <mxGeometry width="50" height="50" relative="1" as="geometry">
            <mxPoint x="120" y="200" as="sourcePoint" />
            <mxPoint x="430" y="385" as="targetPoint" />
          </mxGeometry>
        </mxCell>
        <mxCell id="sAggbgLhTvSgYfQhOpYx-22" value="" style="endArrow=none;html=1;rounded=0;entryX=0;entryY=0.5;entryDx=0;entryDy=0;exitX=1;exitY=0.3333333333333333;exitDx=0;exitDy=0;exitPerimeter=0;" edge="1" parent="1" source="sAggbgLhTvSgYfQhOpYx-3" target="sAggbgLhTvSgYfQhOpYx-11">
          <mxGeometry width="50" height="50" relative="1" as="geometry">
            <mxPoint x="120" y="200" as="sourcePoint" />
            <mxPoint x="650" y="435" as="targetPoint" />
            <Array as="points">
              <mxPoint x="420" y="580" />
              <mxPoint x="540" y="510" />
            </Array>
          </mxGeometry>
        </mxCell>
        <mxCell id="sAggbgLhTvSgYfQhOpYx-23" value="&lt;span style=&quot;font-size: 15px;&quot;&gt;강의 조회&lt;/span&gt;" style="ellipse;whiteSpace=wrap;html=1;" vertex="1" parent="1">
          <mxGeometry x="600" y="490" width="140" height="70" as="geometry" />
        </mxCell>
        <mxCell id="sAggbgLhTvSgYfQhOpYx-24" value="&amp;lt;&amp;lt;extend&amp;gt;&amp;gt;" style="html=1;verticalAlign=bottom;labelBackgroundColor=none;endArrow=open;endFill=0;dashed=1;rounded=0;exitX=1;exitY=0.5;exitDx=0;exitDy=0;entryX=0;entryY=0.5;entryDx=0;entryDy=0;" edge="1" parent="1" source="sAggbgLhTvSgYfQhOpYx-10" target="sAggbgLhTvSgYfQhOpYx-25">
          <mxGeometry width="160" relative="1" as="geometry">
            <mxPoint x="760" y="574.44" as="sourcePoint" />
            <mxPoint x="920" y="574.44" as="targetPoint" />
          </mxGeometry>
        </mxCell>
        <mxCell id="sAggbgLhTvSgYfQhOpYx-25" value="&lt;span style=&quot;font-size: 15px;&quot;&gt;이미 좋아요 했다면&lt;br&gt;좋아요 취소&lt;br&gt;&lt;/span&gt;" style="ellipse;whiteSpace=wrap;html=1;" vertex="1" parent="1">
          <mxGeometry x="760" y="670" width="140" height="70" as="geometry" />
        </mxCell>
        <mxCell id="sAggbgLhTvSgYfQhOpYx-26" value="" style="endArrow=none;html=1;rounded=0;entryX=1;entryY=0.3333333333333333;entryDx=0;entryDy=0;entryPerimeter=0;exitX=0;exitY=0.5;exitDx=0;exitDy=0;" edge="1" parent="1" source="sAggbgLhTvSgYfQhOpYx-10" target="sAggbgLhTvSgYfQhOpYx-3">
          <mxGeometry width="50" height="50" relative="1" as="geometry">
            <mxPoint x="430" y="459" as="sourcePoint" />
            <mxPoint x="130" y="592" as="targetPoint" />
          </mxGeometry>
        </mxCell>
        <mxCell id="sAggbgLhTvSgYfQhOpYx-28" value="" style="endArrow=none;html=1;rounded=0;entryX=1;entryY=0.3333333333333333;entryDx=0;entryDy=0;entryPerimeter=0;exitX=0;exitY=0.5;exitDx=0;exitDy=0;" edge="1" parent="1" source="sAggbgLhTvSgYfQhOpYx-23" target="sAggbgLhTvSgYfQhOpYx-3">
          <mxGeometry width="50" height="50" relative="1" as="geometry">
            <mxPoint x="550" y="665" as="sourcePoint" />
            <mxPoint x="130" y="592" as="targetPoint" />
          </mxGeometry>
        </mxCell>
        <mxCell id="sAggbgLhTvSgYfQhOpYx-29" value="&amp;lt;&amp;lt;extend&amp;gt;&amp;gt;" style="html=1;verticalAlign=bottom;labelBackgroundColor=none;endArrow=open;endFill=0;dashed=1;rounded=0;exitX=1;exitY=0.5;exitDx=0;exitDy=0;entryX=0;entryY=0.5;entryDx=0;entryDy=0;" edge="1" parent="1" source="sAggbgLhTvSgYfQhOpYx-23" target="sAggbgLhTvSgYfQhOpYx-30">
          <mxGeometry width="160" relative="1" as="geometry">
            <mxPoint x="800" y="500" as="sourcePoint" />
            <mxPoint x="870" y="510" as="targetPoint" />
          </mxGeometry>
        </mxCell>
        <mxCell id="sAggbgLhTvSgYfQhOpYx-30" value="&lt;span style=&quot;font-size: 15px;&quot;&gt;댓글, 강사 정보&lt;br&gt;함께 조회&lt;br&gt;&lt;/span&gt;" style="ellipse;whiteSpace=wrap;html=1;" vertex="1" parent="1">
          <mxGeometry x="880" y="420" width="140" height="70" as="geometry" />
        </mxCell>
        <mxCell id="sAggbgLhTvSgYfQhOpYx-31" value="&lt;span style=&quot;font-size: 15px;&quot;&gt;카테고리별 조회&lt;br&gt;&lt;/span&gt;" style="ellipse;whiteSpace=wrap;html=1;" vertex="1" parent="1">
          <mxGeometry x="860" y="550" width="140" height="70" as="geometry" />
        </mxCell>
        <mxCell id="sAggbgLhTvSgYfQhOpYx-32" value="&amp;lt;&amp;lt;extend&amp;gt;&amp;gt;" style="html=1;verticalAlign=bottom;labelBackgroundColor=none;endArrow=open;endFill=0;dashed=1;rounded=0;exitX=1;exitY=0.5;exitDx=0;exitDy=0;entryX=0;entryY=0.5;entryDx=0;entryDy=0;" edge="1" parent="1" source="sAggbgLhTvSgYfQhOpYx-23" target="sAggbgLhTvSgYfQhOpYx-31">
          <mxGeometry width="160" relative="1" as="geometry">
            <mxPoint x="750" y="535" as="sourcePoint" />
            <mxPoint x="890" y="465" as="targetPoint" />
          </mxGeometry>
        </mxCell>
      </root>
    </mxGraphModel>
  </diagram>
</mxfile>
